<svg width="50" height="80" viewBox="0 0 50 80" fill="none" xmlns="http://www.w3.org/2000/svg">
<path d="M10.9856 31.952C10.9643 32.5707 10.7296 33.0933 10.2816 33.52C9.83363 33.9467 9.30029 34.1493 8.68163 34.128C8.06296 34.1067 7.54029 33.872 7.11363 33.424C6.68696 32.976 6.48429 32.4427 6.50563 31.824C6.56963 29.776 6.56963 25.5947 6.50563 19.28L4.90563 20.336C4.39363 20.6773 3.82829 20.7947 3.20963 20.688C2.61229 20.56 2.14296 20.24 1.80163 19.728C1.46029 19.216 1.34296 18.6613 1.44963 18.064C1.57763 17.4453 1.89763 16.9653 2.40963 16.624L3.40163 15.984C3.76429 15.7493 3.99896 15.6 4.10563 15.536C4.21229 15.4507 4.36163 15.3333 4.55363 15.184C4.74563 15.0133 4.90563 14.8427 5.03363 14.672L5.51363 14C5.64163 13.872 5.70563 13.616 5.70563 13.232C5.85496 12.6773 6.05763 12.2293 6.31363 11.888C6.93229 11.0773 7.74296 10.704 8.74563 10.768C9.53496 10.832 10.1323 11.2053 10.5376 11.888C10.623 12.0587 10.6976 12.24 10.7616 12.432C10.783 12.5387 10.8043 12.6667 10.8256 12.816C10.847 12.9653 10.8683 13.136 10.8896 13.328C10.911 13.648 10.9216 14.096 10.9216 14.672C10.943 15.504 10.9643 16.7093 10.9856 18.288C11.0283 25.968 11.0283 30.5227 10.9856 31.952Z" fill="black"/>
<path d="M12.7083 62.888C12.3029 62.4613 11.9403 61.8853 11.6203 61.16L11.3323 60.488C11.2469 60.2747 11.1723 60.1147 11.1083 60.008C10.8523 59.496 10.8096 58.9627 10.9803 58.408C11.1509 57.8533 11.4923 57.448 12.0043 57.192C12.5376 56.9147 13.0816 56.8613 13.6363 57.032C14.1909 57.2027 14.6069 57.5547 14.8843 58.088C14.9909 58.3013 15.1083 58.5573 15.2363 58.856L15.4923 59.464C15.5989 59.7413 15.6949 59.9227 15.7803 60.008C16.0789 60.3067 16.5269 60.5413 17.1243 60.712C17.7429 60.8827 18.4256 60.9253 19.1723 60.84C19.9403 60.7547 20.6016 60.5627 21.1563 60.264C21.7109 59.9653 22.0949 59.624 22.3083 59.24C22.4363 59.0053 22.4789 58.5147 22.4363 57.768C22.3296 56.1467 21.0496 55.08 18.5963 54.568C17.9136 54.7387 17.3056 54.5893 16.7723 54.12C16.4309 53.9067 16.1643 53.6187 15.9723 53.256C15.8016 52.872 15.7376 52.4773 15.7803 52.072C15.8656 51.496 16.1323 51.0267 16.5803 50.664C17.0496 50.3013 17.5723 50.152 18.1483 50.216C18.2336 50.2373 18.3296 50.2587 18.4363 50.28C18.5856 50.2373 18.7456 50.2053 18.9163 50.184C19.0869 50.1413 19.2043 50.12 19.2683 50.12C19.3536 50.0987 19.4496 50.0773 19.5563 50.056C19.6629 50.0133 19.7696 49.96 19.8763 49.896C20.5163 49.5333 20.8576 49.1387 20.9003 48.712C20.9216 48.2213 20.6869 47.7093 20.1963 47.176C19.5776 46.5147 18.8416 46.12 17.9883 45.992C17.1349 45.8427 16.2496 46.0453 15.3323 46.6L15.1403 46.824L14.8523 47.272C14.6816 47.528 14.5429 47.7307 14.4363 47.88C14.0736 48.328 13.5936 48.5947 12.9963 48.68C12.4203 48.744 11.9083 48.5947 11.4603 48.232C11.0123 47.8693 10.7456 47.4 10.6603 46.824C10.5963 46.2267 10.7456 45.704 11.1083 45.256C11.1723 45.192 11.2469 45.096 11.3323 44.968L11.6523 44.456C12.0576 43.8587 12.4949 43.4 12.9643 43.08C14.1803 42.2693 15.4603 41.8213 16.8043 41.736C18.1696 41.6507 19.3963 41.8427 20.4843 42.312C21.5723 42.7813 22.5109 43.4427 23.3003 44.296C24.6229 45.7253 25.2203 47.2933 25.0923 49C25.0283 50.216 24.5696 51.2827 23.7163 52.2C25.5296 53.5013 26.5109 55.272 26.6603 57.512C26.7669 59.0907 26.5323 60.3707 25.9563 61.352C25.3376 62.44 24.4523 63.2933 23.3003 63.912C22.1483 64.5093 20.9323 64.8827 19.6523 65.032C18.3723 65.1813 17.1029 65.0853 15.8443 64.744C14.6069 64.4027 13.5616 63.784 12.7083 62.888Z" fill="black"/>
<path d="M39.3849 41.064C37.9769 40.7013 36.7502 40.0933 35.7049 39.24C34.6595 38.3653 33.8595 37.352 33.3049 36.2C32.7502 35.048 32.3449 33.8427 32.0889 32.584C31.8542 31.3253 31.7795 30.0667 31.8649 28.808C31.9289 27.5707 32.1422 26.3547 32.5049 25.16C32.8889 23.9653 33.4009 22.8347 34.0409 21.768C34.6809 20.7013 35.5342 19.8053 36.6009 19.08C37.6462 18.3547 38.8195 17.9173 40.1209 17.768C40.7395 17.704 41.2942 17.704 41.7849 17.768C42.3182 17.8107 42.8302 17.9493 43.3209 18.184C43.8115 18.4187 44.1742 18.6107 44.4089 18.76C44.6435 18.888 44.9955 19.1333 45.4649 19.496C45.9555 19.8373 46.2222 20.0187 46.2649 20.04C46.7769 20.3813 47.0862 20.872 47.1929 21.512C47.3209 22.1307 47.2142 22.7067 46.8729 23.24C46.5315 23.752 46.0515 24.072 45.4329 24.2C44.8355 24.328 44.2809 24.2107 43.7689 23.848L43.0649 23.336C42.8089 23.1653 42.6275 23.0373 42.5209 22.952L42.0729 22.664C41.8809 22.5573 41.7529 22.504 41.6889 22.504C41.6462 22.4827 41.5395 22.44 41.3689 22.376C41.1982 22.312 41.0702 22.3013 40.9849 22.344C40.9209 22.3653 40.7822 22.3653 40.5689 22.344C39.6942 22.4507 38.8835 22.9307 38.1369 23.784C37.4115 24.6373 36.8995 25.7573 36.6009 27.144C36.8355 26.9733 37.0809 26.8133 37.3369 26.664C38.3822 26.1093 39.5555 25.8853 40.8569 25.992C42.1795 26.0987 43.3529 26.4293 44.3769 26.984C45.4009 27.5387 46.2009 28.232 46.7769 29.064C47.3529 29.896 47.7582 30.8027 47.9929 31.784C48.2489 32.744 48.3129 33.7253 48.1849 34.728C48.0782 35.7093 47.8009 36.6373 47.3529 37.512C46.9049 38.3867 46.2969 39.1547 45.5289 39.816C44.7822 40.456 43.8862 40.8933 42.8409 41.128C41.8169 41.3627 40.6649 41.3413 39.3849 41.064ZM40.4089 36.584C41.3475 36.8187 42.1155 36.6907 42.7129 36.2C43.3102 35.752 43.6622 35.08 43.7689 34.184C43.8755 33.2667 43.6622 32.4667 43.1289 31.784C42.6169 31.08 41.7422 30.6853 40.5049 30.6C40.0569 30.5573 39.7049 30.6107 39.4489 30.76C39.0435 30.9733 38.5315 31.3893 37.9129 32.008L36.8569 33.096C37.5395 34.9947 38.7235 36.1573 40.4089 36.584Z" fill="black"/>
</svg>
