<svg width="12" height="13" viewBox="0 0 12 13" fill="none" xmlns="http://www.w3.org/2000/svg">
<path d="M11 4.5C11.2761 4.5 11.5 4.27614 11.5 4C11.5 3.72386 11.2761 3.5 11 3.5L11 4.5ZM0.646447 3.64644C0.451184 3.84171 0.451184 4.15829 0.646447 4.35355L3.82843 7.53553C4.02369 7.73079 4.34027 7.73079 4.53553 7.53553C4.7308 7.34027 4.7308 7.02369 4.53553 6.82843L1.70711 4L4.53553 1.17157C4.7308 0.97631 4.7308 0.659727 4.53553 0.464465C4.34027 0.269203 4.02369 0.269203 3.82843 0.464465L0.646447 3.64644ZM11 3.5L1 3.5L1 4.5L11 4.5L11 3.5Z" fill="black"/>
<path d="M11.3536 9.35355C11.5488 9.15829 11.5488 8.84171 11.3536 8.64645L8.17157 5.46447C7.97631 5.2692 7.65973 5.2692 7.46447 5.46447C7.2692 5.65973 7.2692 5.97631 7.46447 6.17157L10.2929 9L7.46447 11.8284C7.2692 12.0237 7.2692 12.3403 7.46447 12.5355C7.65973 12.7308 7.97631 12.7308 8.17157 12.5355L11.3536 9.35355ZM1 8.5C0.723858 8.5 0.5 8.72386 0.5 9C0.5 9.27614 0.723858 9.5 1 9.5L1 8.5ZM11 8.5L1 8.5L1 9.5L11 9.5L11 8.5Z" fill="black"/>
</svg>
