<svg width="27" height="18" viewBox="0 0 27 18" fill="none" xmlns="http://www.w3.org/2000/svg">
<path fill-rule="evenodd" clip-rule="evenodd" d="M0.312961 7.66415C3.88008 2.63639 8.50522 0 13.1388 0C18.5807 0 23.2684 3.48599 26.0341 7.68617L26.0354 7.68815C26.2185 7.96777 26.3158 8.29328 26.3158 8.62581C26.3158 8.95773 26.2188 9.28266 26.0364 9.56193C23.2731 13.8162 18.6157 17.25 13.1388 17.25C7.60356 17.25 3.03591 13.8234 0.279395 9.58147C0.0920931 9.29549 -0.00505359 8.96143 0.000202548 8.62128C0.00547176 8.28028 0.113418 7.94847 0.3104 7.66778L0.312961 7.66415ZM1.75432 8.6475L1.75675 8.65121C4.30277 12.57 8.38345 15.525 13.1388 15.525C17.8409 15.525 22.0095 12.5574 24.5586 8.63247L24.5603 8.62989C24.5611 8.62867 24.5615 8.62726 24.5615 8.62581C24.5615 8.6252 24.5614 8.6246 24.5613 8.62401C24.5611 8.62327 24.5608 8.62255 24.5604 8.6219C22.0016 4.73702 17.7988 1.725 13.1388 1.725C9.22765 1.725 5.08781 3.95089 1.75432 8.6475Z" fill="#05EFD4"/>
<path fill-rule="evenodd" clip-rule="evenodd" d="M13.1577 5.17501C11.2198 5.17501 9.64892 6.71963 9.64892 8.62501C9.64892 10.5304 11.2198 12.075 13.1577 12.075C15.0955 12.075 16.6665 10.5304 16.6665 8.62501C16.6665 6.71963 15.0955 5.17501 13.1577 5.17501ZM7.89453 8.62501C7.89453 5.76694 10.2509 3.45001 13.1577 3.45001C16.0645 3.45001 18.4208 5.76694 18.4208 8.62501C18.4208 11.4831 16.0645 13.8 13.1577 13.8C10.2509 13.8 7.89453 11.4831 7.89453 8.62501Z" fill="#05EFD4"/>
</svg>
