<?xml version="1.0" encoding="UTF-8"?>
<svg id="_Слой_1" data-name="Слой 1" xmlns="http://www.w3.org/2000/svg" xmlns:xlink="http://www.w3.org/1999/xlink" viewBox="0 0 21.09 18.15">
  <defs>
    <style>
      .cls-1 {
        fill: #158f97;
      }

      .cls-2 {
        fill: url(#_Безымянный_градиент_6);
      }

      .cls-3 {
        stroke: url(#_Безымянный_градиент_5);
      }

      .cls-3, .cls-4, .cls-5, .cls-6, .cls-7 {
        fill: none;
        stroke-width: 2px;
      }

      .cls-4 {
        stroke: url(#_Безымянный_градиент_3);
      }

      .cls-5 {
        stroke: url(#_Безымянный_градиент_2);
      }

      .cls-6 {
        stroke: url(#_Безымянный_градиент);
      }

      .cls-8 {
        fill: url(#_Безымянный_градиент_4);
      }

      .cls-9 {
        fill: #05efd4;
      }

      .cls-7 {
        stroke: url(#_Безымянный_градиент_7);
      }
    </style>
    <linearGradient id="_Безымянный_градиент" data-name="Безымянный градиент" x1="18.7" y1="3.43" x2="-4.61" y2="13.28" gradientTransform="translate(0 18.91) scale(1 -1)" gradientUnits="userSpaceOnUse">
      <stop offset="0" stop-color="#38eeee"/>
      <stop offset="1" stop-color="#2353ff"/>
    </linearGradient>
    <linearGradient id="_Безымянный_градиент_2" data-name="Безымянный градиент 2" x1="17.31" y1="6.56" x2="-5.01" y2="14.69" gradientTransform="translate(0 18.91) scale(1 -1)" gradientUnits="userSpaceOnUse">
      <stop offset="0" stop-color="#38eeee"/>
      <stop offset="1" stop-color="#2353ff"/>
    </linearGradient>
    <linearGradient id="_Безымянный_градиент_3" data-name="Безымянный градиент 3" x1="13.35" y1="7.89" x2="-.05" y2="18.07" gradientTransform="translate(0 18.91) scale(1 -1)" gradientUnits="userSpaceOnUse">
      <stop offset="0" stop-color="#38eeee"/>
      <stop offset="1" stop-color="#2353ff"/>
    </linearGradient>
    <linearGradient id="_Безымянный_градиент_4" data-name="Безымянный градиент 4" x1="-1474.97" y1="-407.35" x2="-1468.2" y2="-401.88" gradientTransform="translate(-398.05 -1466.05) rotate(-90) scale(1 -1)" gradientUnits="userSpaceOnUse">
      <stop offset="0" stop-color="#ffc700"/>
      <stop offset="1" stop-color="#ff5b5b"/>
    </linearGradient>
    <linearGradient id="_Безымянный_градиент_5" data-name="Безымянный градиент 5" x1="7.41" y1="8.44" x2="4.6" y2="23.93" gradientTransform="translate(0 18.91) scale(1 -1)" gradientUnits="userSpaceOnUse">
      <stop offset="0" stop-color="#38eeee"/>
      <stop offset="1" stop-color="#2353ff"/>
    </linearGradient>
    <linearGradient id="_Безымянный_градиент_6" data-name="Безымянный градиент 6" x1="-189.25" y1="-250.12" x2="-178.25" y2="-238.78" gradientTransform="translate(196.52 -235.24) scale(1 -1)" gradientUnits="userSpaceOnUse">
      <stop offset="0" stop-color="#ffc700"/>
      <stop offset="1" stop-color="#ff5b5b"/>
    </linearGradient>
    <linearGradient id="_Безымянный_градиент_7" data-name="Безымянный градиент 7" x1="4" y1="20.14" x2="20.74" y2=".77" gradientTransform="translate(0 18.91) scale(1 -1)" gradientUnits="userSpaceOnUse">
      <stop offset="0" stop-color="#38eeee"/>
      <stop offset="1" stop-color="#2353ff"/>
    </linearGradient>
  </defs>
  <path class="cls-6" d="m15,10.95c0-1.47-1.01-2.62-2.25-3.34-1.26-.74-2.94-1.16-4.75-1.16s-3.48.42-4.75,1.16c-1.24.72-2.25,1.87-2.25,3.34s1.01,2.62,2.25,3.34c1.26.74,2.94,1.16,4.75,1.16s3.48-.42,4.75-1.16c1.24-.72,2.25-1.87,2.25-3.34Z"/>
  <path class="cls-5" d="m15,8.95c0-1.47-1.01-2.62-2.25-3.34-1.26-.74-2.94-1.16-4.75-1.16s-3.48.42-4.75,1.16c-1.24.72-2.25,1.87-2.25,3.34s1.01,2.62,2.25,3.34c1.26.74,2.94,1.16,4.75,1.16s3.48-.42,4.75-1.16c1.24-.72,2.25-1.87,2.25-3.34Z"/>
  <path class="cls-4" d="m15,6.95c0-1.47-1.01-2.62-2.25-3.34-1.26-.74-2.94-1.16-4.75-1.16s-3.48.42-4.75,1.16c-1.24.72-2.25,1.87-2.25,3.34s1.01,2.62,2.25,3.34c1.26.74,2.94,1.16,4.75,1.16s3.48-.42,4.75-1.16c1.24-.72,2.25-1.87,2.25-3.34Z"/>
  <g>
    <ellipse class="cls-8" cx="6.5" cy="5.45" rx="4.5" ry="3"/>
    <path class="cls-3" d="m12,5.45c0-1.27-.77-2.29-1.76-2.95-1-.67-2.32-1.05-3.74-1.05s-2.74.38-3.74,1.05c-.99.66-1.76,1.69-1.76,2.95s.77,2.29,1.76,2.95c1,.67,2.32,1.05,3.74,1.05s2.74-.38,3.74-1.05c.99-.66,1.76-1.69,1.76-2.95Z"/>
  </g>
  <g>
    <path class="cls-9" d="m6.86,3.99s.08.02.11.05c.03.03.04.07.04.11,0,.04-.02.08-.05.11-.03.03-.07.04-.11.04-.06,0-.3-.01-.72,0-.42,0-.66,0-.72,0,.2.15.46.33.77.53.04.02.06.05.07.1,0,.04,0,.08-.02.11,0,0,0,0,0,0-.01.02-.03.03-.04.05-.12.08-.3.23-.54.43l-.23.19c.15,0,.32,0,.52,0,.1,0,.25,0,.45,0,.21,0,.36,0,.47,0,.04,0,.08.02.11.05.03.03.04.06.04.11s-.01.08-.04.11c-.03.03-.07.04-.11.04-.11,0-.26,0-.47,0-.21,0-.36,0-.46,0-.37,0-.67.01-.9.04-.04,0-.08,0-.11-.03s-.05-.06-.05-.1c0-.02,0-.04,0-.06,0-.05.02-.08.06-.11l.53-.45c.15-.13.28-.23.39-.32-.41-.27-.72-.5-.93-.7,0,0-.01-.02-.02-.02-.03-.03-.04-.07-.04-.11,0-.04.02-.08.05-.11.03-.03.07-.04.11-.04.21,0,.52.01.94,0,.41,0,.72,0,.92,0Z"/>
    <path class="cls-1" d="m6.86,3.99v-.2s0,0,0,0v.2Zm.1.05l.15-.14-.15.14Zm.04.11h.2s-.2,0-.2,0Zm-.16.14l-.03.2h0s0,0,0,0v-.2Zm-.71,0v.2h0v-.2Zm-.72,0v-.2h-.59l.47.36.12-.16Zm.77.53l-.11.17h0s.1-.17.1-.17Zm.07.1l-.2.04h0s.2-.04.2-.04Zm-.02.11l.14.14h.01s.01-.03.01-.03l-.17-.11Zm0,0l.17.11.03-.05v-.06h-.2Zm-.04.05l.12.16h0s-.12-.16-.12-.16Zm-.54.43l.13.15h0l-.13-.15Zm-.23.19l-.13-.15-.45.38.59-.02v-.2Zm.96,0v.2s0,0,0,0v-.2Zm.58.05l.14-.14h0l-.14.14Zm0,.21l.14.15h0s-.15-.15-.15-.15Zm-.58.04v.2s0,0,0,0v-.2Zm-1.36.03l.02.2h0s-.02-.2-.02-.2Zm-.11-.03l.13-.16h0l-.13.16Zm-.05-.1l.2-.02h0s-.2.02-.2.02Zm0-.06l.19.06v-.03s.01-.03.01-.03h-.2Zm.06-.12l.13.15h0s-.13-.15-.13-.15Zm.53-.45l-.13-.15h0s.13.15.13.15Zm.39-.32l.12.16.22-.17-.24-.15-.11.17Zm-.93-.7l-.14.14h0s.14-.14.14-.14Zm-.02-.02l.16-.12h0s0-.02,0-.02l-.15.14Zm-.04-.11h-.2s.2,0,.2,0Zm.16-.14v.2s0,0,0,0v-.2Zm.94,0v.2s0,0,0,0v-.2Zm.91.21s0,0-.02,0c0,0-.01,0-.02-.01l.29-.27c-.06-.07-.15-.11-.24-.11l-.02.4Zm-.03-.02s0,0-.01-.02c0,0,0-.02,0-.02l.4.02c0-.09-.03-.18-.09-.25l-.29.27Zm-.01-.04s0,0,0-.02c0,0,0-.01.01-.02l.27.29c.07-.06.11-.15.11-.24l-.4-.02Zm.02-.03s0,0,.02-.01c0,0,.02,0,.02,0l-.02.4c.09,0,.18-.03.25-.09l-.27-.29Zm.05-.01s-.13,0-.25,0c-.12,0-.29,0-.5,0v.4c.21,0,.37,0,.49,0,.06,0,.11,0,.14,0,.02,0,.03,0,.04,0,0,0,0,0,.01,0,0,0,0,0,0,0,0,0,0,0,0,0l.05-.4Zm-.74-.01c-.42,0-.66,0-.72,0v.4c.06,0,.3,0,.72,0v-.4Zm-.84.36c.21.16.47.34.78.54l.22-.34c-.31-.2-.56-.38-.75-.52l-.24.32Zm.79.55s-.01,0-.02-.02c0,0,0-.02,0-.02l.39-.07c-.02-.1-.07-.18-.16-.23l-.21.34Zm-.03-.04s0,0,0-.02c0,0,0-.02,0-.02l.34.22c.05-.08.07-.17.05-.26l-.39.08Zm.03-.07s-.06.07-.06.15h.4c0,.07-.04.12-.06.14l-.28-.28Zm-.03.04s0,0,0,0l.24.32s.06-.06.09-.09l-.33-.22Zm0,0c-.12.09-.31.23-.55.44l.26.31c.24-.2.41-.34.52-.42l-.23-.33Zm-.55.44l-.23.2.26.31.23-.2-.26-.31Zm-.1.55c.15,0,.32,0,.51,0v-.4c-.2,0-.37,0-.52,0l.02.4Zm.51,0c.09,0,.24,0,.45,0v-.4c-.2,0-.35,0-.45,0v.4Zm.45,0c.21,0,.36,0,.47,0v-.4c-.11,0-.26,0-.47,0v.4Zm.47,0s-.01,0-.02,0c0,0-.01,0-.01,0l.28-.28c-.07-.07-.15-.1-.25-.1v.4Zm-.03-.01s0-.01-.01-.02c0,0,0-.01,0-.02h.4c0-.09-.03-.18-.1-.25l-.28.28Zm-.02-.04s0,0,0-.01c0,0,0-.01,0-.01l.29.27c.06-.07.1-.15.1-.24h-.4Zm.02-.04s0,0,.01,0c0,0,.01,0,.01,0v.4c.09,0,.18-.03.24-.1l-.27-.29Zm.03-.01c-.11,0-.26,0-.47,0v.4c.2,0,.36,0,.47,0v-.4Zm-.46,0c-.21,0-.36,0-.46,0v.4c.1,0,.25,0,.45,0v-.4Zm-.45,0c-.38,0-.69.01-.92.04l.04.4c.22-.02.51-.03.88-.03v-.4Zm-.92.04s0,0,.02,0c0,0,.01,0,.02,0l-.25.31c.07.06.16.09.26.08l-.04-.4Zm.03.01s0,0,.01.02c0,0,0,.02,0,.02l-.4.04c0,.09.05.18.13.24l.25-.31Zm.02.03s0,.02,0,.03l-.38-.13s-.02.09-.02.14l.4-.04Zm0-.03s0,0,0,.02c0,0,0,.01,0,.01l-.26-.31c-.08.07-.12.16-.13.26l.4.02Zm-.01.03l.53-.45-.26-.31-.53.45.26.31Zm.53-.45c.15-.12.28-.23.39-.31l-.24-.32c-.12.09-.25.2-.4.32l.26.31Zm.37-.64c-.4-.27-.7-.49-.91-.68l-.27.29c.23.21.55.45.96.72l.22-.33Zm-.9-.67s0,0,0,0l-.32.24s.03.03.04.05l.28-.28Zm-.02-.02s0,0,0,.01c0,0,0,.02,0,.02l-.4-.02c0,.1.03.19.1.26l.29-.27Zm.01.04s0,0,0,.02c0,0,0,.01-.01.02l-.27-.29c-.07.06-.11.15-.11.24l.4.02Zm-.02.03s0,0-.02.01c0,0-.02,0-.02,0l.02-.4c-.09,0-.18.03-.25.09l.27.29Zm-.04.01c.21,0,.53.01.94,0v-.4c-.42,0-.72,0-.93,0l-.02.4Zm.95,0c.41,0,.71,0,.91,0l.02-.4c-.21,0-.52-.01-.93,0v.4Z"/>
  </g>
  <g>
    <ellipse class="cls-2" cx="12.91" cy="9.07" rx="6.08" ry="7.15" transform="translate(-2.09 4.17) rotate(-17.01)"/>
    <path class="cls-7" d="m15.3,16.87c3.88-1.19,5.66-5.71,4.39-9.87C18.41,2.85,14.41.09,10.53,1.28c-3.88,1.19-5.66,5.71-4.39,9.87,1.27,4.16,5.28,6.91,9.16,5.72Z"/>
  </g>
  <g>
    <path class="cls-9" d="m16.23,10.52c.03.11.02.22-.03.32-.05.1-.12.16-.21.19-.09.03-.19.01-.27-.05-.09-.06-.14-.14-.17-.26-.03-.17-.21-.81-.53-1.92-.33-1.12-.51-1.75-.56-1.91-.19.65-.39,1.48-.6,2.47-.02.11-.08.2-.16.25-.08.05-.17.06-.26.03,0,0-.01,0-.02,0-.05-.02-.09-.04-.13-.08-.28-.25-.73-.62-1.36-1.1l-.61-.47c.13.4.27.85.42,1.37.07.26.19.66.33,1.21.15.55.27.97.35,1.25.03.11.03.22-.02.32-.04.1-.11.16-.2.19-.09.03-.18.02-.27-.03-.09-.06-.14-.14-.18-.26-.08-.28-.2-.7-.35-1.25-.15-.55-.26-.96-.34-1.22-.29-1-.55-1.79-.77-2.38-.04-.11-.05-.22-.01-.32.03-.11.1-.18.19-.22.04-.02.09-.03.13-.03.1-.03.2,0,.3.06l1.4,1.07c.4.3.73.57,1.01.8.28-1.3.56-2.31.84-3.04.01-.03.02-.05.04-.07.05-.11.12-.17.21-.2.09-.03.19-.01.27.05.09.06.14.14.17.26.14.57.38,1.4.7,2.51.33,1.1.56,1.92.69,2.47Z"/>
    <path class="cls-1" d="m16.23,10.52l.15-.04h0s-.15.04-.15.04Zm-.03.32l.14.09-.14-.09Zm-.21.19l.04.18h0l-.04-.18Zm-.44-.3l-.15.03h0s0,.02,0,.02l.15-.04Zm-.53-1.92l-.15.05h0l.15-.05Zm-.56-1.91l.15-.05-.15-.52-.15.51.15.07Zm-.6,2.47l-.15-.05h0s.15.05.15.05Zm-.16.25l-.08-.17h0s.08.17.08.17Zm-.26.03l-.07.16h.01s.02.02.02.02l.04-.18Zm-.02,0l-.04.18.05.02.04-.02-.05-.18Zm-.13-.08l-.09.15h0s.09-.15.09-.15Zm-1.36-1.1l-.08.15h0l.08-.15Zm-.61-.47l.08-.15-.4-.3.17.52.15-.06Zm.75,2.59l-.15.05h0s.15-.05.15-.05Zm.34,1.58l.14.09h0l-.14-.09Zm-.47.17l-.07.16h0s.06-.16.06-.16Zm-.53-1.51l-.15.05h0s.15-.05.15-.05Zm-1.11-3.61l-.14.07h0s.14-.07.14-.07Zm-.01-.32l.15.07h0l-.15-.07Zm.19-.22l.07.17h0s-.07-.17-.07-.17Zm.13-.03v.19s.02,0,.02,0h.02s-.04-.19-.04-.19Zm.3.06l-.08.15h0s.08-.15.08-.15Zm1.4,1.07l.08-.15h0s-.08.15-.08.15Zm1.01.8l-.09.15.18.15.05-.25-.15-.05Zm.84-3.04l-.14-.09h0s.14.09.14.09Zm.04-.07l.13.11h0s0-.02,0-.02l-.14-.09Zm.21-.2l-.04-.18h0l.04.18Zm.44.3l-.15.04h0s.15-.04.15-.04Zm.7,2.51l-.15.05h0s.15-.05.15-.05Zm.54,2.51c.02.07.01.12-.01.18l.28.19c.06-.14.08-.3.04-.46l-.3.09Zm-.01.18c-.02.05-.06.09-.12.1l.09.36c.13-.04.24-.13.3-.27l-.28-.19Zm-.12.1c-.06.02-.1,0-.15-.03l-.15.32c.12.08.25.11.39.07l-.09-.36Zm-.15-.03s-.08-.08-.09-.14l-.3.09c.04.16.12.29.25.37l.15-.32Zm-.09-.13c-.02-.1-.07-.31-.16-.63-.09-.32-.21-.76-.38-1.32l-.3.11c.16.56.29.99.38,1.31.09.32.14.51.15.58l.31-.06Zm-.54-1.95c-.33-1.12-.51-1.75-.56-1.91l-.3.1c.05.16.23.8.56,1.91l.3-.11Zm-.85-1.93c-.19.66-.39,1.49-.6,2.48l.3.11c.21-.99.41-1.81.59-2.45l-.3-.13Zm-.6,2.49c-.01.06-.04.1-.09.13l.16.33c.13-.08.21-.2.24-.37l-.31-.1Zm-.09.14s-.09.04-.15.02l-.08.36c.13.05.26.03.38-.04l-.16-.33Zm-.12.03s-.08-.04-.14-.02l.1.36s-.09,0-.1-.01l.14-.33Zm-.04-.02s-.06-.03-.08-.05l-.18.3c.05.05.12.08.18.11l.08-.35Zm-.08-.05c-.28-.25-.74-.63-1.37-1.11l-.16.31c.63.48,1.08.85,1.35,1.09l.18-.29Zm-1.37-1.11l-.61-.47-.16.31.61.47.16-.31Zm-.84-.26c.13.39.27.85.41,1.36l.3-.1c-.15-.52-.29-.98-.42-1.38l-.29.12Zm.41,1.36c.07.25.18.66.33,1.21l.3-.1c-.15-.55-.26-.96-.34-1.22l-.3.1Zm.33,1.21c.15.55.27.97.35,1.25l.3-.1c-.08-.28-.2-.7-.35-1.25l-.3.1Zm.35,1.25c.02.06.02.12,0,.18l.28.18c.06-.15.07-.3.02-.46l-.3.1Zm0,.18c-.02.05-.05.09-.11.11l.1.36c.13-.05.23-.14.29-.28l-.28-.18Zm-.11.11c-.06.02-.11.01-.16-.02l-.13.33c.13.07.26.09.39.04l-.1-.36Zm-.15,0s-.08-.08-.1-.15l-.3.1c.04.16.13.28.25.36l.15-.32Zm-.1-.15c-.08-.28-.2-.7-.35-1.25l-.3.1c.15.55.27.97.35,1.25l.3-.1Zm-.35-1.25c-.15-.55-.26-.96-.34-1.23l-.3.1c.07.26.19.67.34,1.22l.3-.1Zm-.34-1.23c-.29-1-.55-1.8-.78-2.4l-.28.14c.23.58.48,1.37.77,2.37l.3-.1Zm-.78-2.4c-.02-.07-.03-.12,0-.18l-.29-.14c-.05.15-.04.31.02.46l.29-.14Zm0-.18c.02-.06.05-.1.1-.12l-.13-.34c-.13.06-.22.17-.27.32l.29.14Zm.1-.12s.05-.02.07-.02v-.37c-.07,0-.14.01-.2.04l.13.34Zm.11-.02c.06-.02.11,0,.17.04l.16-.31c-.13-.1-.28-.13-.42-.09l.09.36Zm.17.04l1.4,1.07.16-.31-1.4-1.07-.16.31Zm1.4,1.07c.39.3.73.57,1,.8l.17-.3c-.28-.23-.62-.5-1.02-.81l-.16.31Zm1.24.7c.28-1.29.56-2.3.83-3.01l-.29-.17c-.28.74-.56,1.76-.85,3.07l.3.11Zm.83-3s.02-.04.03-.05l-.26-.22s-.03.06-.05.1l.28.18Zm.03-.07c.03-.06.07-.1.12-.11l-.09-.36c-.14.04-.24.14-.31.28l.28.19Zm.12-.11c.06-.02.1,0,.15.03l.15-.32c-.12-.08-.25-.11-.39-.07l.09.36Zm.15.03s.08.08.09.14l.3-.09c-.04-.16-.12-.29-.25-.37l-.15.32Zm.09.14c.14.57.38,1.41.7,2.52l.3-.11c-.32-1.1-.55-1.94-.7-2.5l-.3.09Zm.7,2.52c.33,1.1.56,1.91.69,2.46l.3-.09c-.14-.55-.37-1.38-.7-2.47l-.3.11Z"/>
  </g>
</svg>