<svg width="58" height="31" viewBox="0 0 58 31" fill="none" xmlns="http://www.w3.org/2000/svg">
<path d="M55.3479 17.5376C56.4525 17.5376 57.3479 16.6422 57.3479 15.5376C57.3479 14.433 56.4525 13.5376 55.3479 13.5376V17.5376ZM1.30968 14.1234C0.528637 14.9044 0.528637 16.1708 1.30968 16.9518L14.0376 29.6797C14.8187 30.4608 16.085 30.4608 16.866 29.6797C17.6471 28.8987 17.6471 27.6324 16.866 26.8513L5.55233 15.5376L16.866 4.22389C17.6471 3.44284 17.6471 2.17651 16.866 1.39546C16.085 0.614413 14.8187 0.614413 14.0376 1.39546L1.30968 14.1234ZM55.3479 13.5376L2.7239 13.5376V17.5376L55.3479 17.5376V13.5376Z" fill="#FC1414"/>
</svg>
