<svg width="100" height="100" viewBox="0 0 100 100" fill="none" xmlns="http://www.w3.org/2000/svg">
<rect x="1.5" y="1.5" width="97" height="97" rx="18.5" fill="url(#paint0_linear_1659_63)" stroke="#05EFD4" stroke-width="3"/>
<path d="M74.483 62.9234C73.5549 62.0656 72.1909 61.8547 71.0238 61.6578C69.4067 61.3906 68.788 61.0953 67.8459 60.2516C65.8351 58.4656 65.8351 55.8781 67.8459 54.0922L72.1066 50.3094C78.6311 44.5438 78.6311 35.0938 72.1066 29.3281C67.2975 25.0953 60.8432 23 54.1359 23C46.3036 23 38.1197 25.8547 31.8061 31.4516C20.0646 41.8297 20.0646 58.8313 31.8061 69.2094C37.6416 74.3703 45.5161 76.9437 53.3062 77H53.5453C61.3354 77 69.013 74.4828 74.4689 69.6313C76.4938 67.8453 76.1549 64.4844 74.483 62.9234Z" fill="url(#paint1_radial_1659_63)" stroke="black" stroke-width="2" stroke-miterlimit="10"/>
<path d="M36.75 46.5C36.75 48.8472 34.8472 50.75 32.5 50.75C30.1528 50.75 28.25 48.8472 28.25 46.5C28.25 44.1528 30.1528 42.25 32.5 42.25C34.8472 42.25 36.75 44.1528 36.75 46.5Z" fill="url(#paint2_linear_1659_63)"/>
<path d="M36.75 46.5C36.75 48.8472 34.8472 50.75 32.5 50.75C30.1528 50.75 28.25 48.8472 28.25 46.5C28.25 44.1528 30.1528 42.25 32.5 42.25C34.8472 42.25 36.75 44.1528 36.75 46.5Z" stroke="url(#paint3_linear_1659_63)" stroke-width="0.5" style="mix-blend-mode:overlay"/>
<path d="M40.75 60.5C40.75 62.8472 38.8472 64.75 36.5 64.75C34.1528 64.75 32.25 62.8472 32.25 60.5C32.25 58.1528 34.1528 56.25 36.5 56.25C38.8472 56.25 40.75 58.1528 40.75 60.5Z" fill="url(#paint4_linear_1659_63)"/>
<path d="M40.75 60.5C40.75 62.8472 38.8472 64.75 36.5 64.75C34.1528 64.75 32.25 62.8472 32.25 60.5C32.25 58.1528 34.1528 56.25 36.5 56.25C38.8472 56.25 40.75 58.1528 40.75 60.5Z" stroke="url(#paint5_linear_1659_63)" stroke-width="0.5" style="mix-blend-mode:overlay"/>
<path d="M46.75 35.5C46.75 37.8472 44.8472 39.75 42.5 39.75C40.1528 39.75 38.25 37.8472 38.25 35.5C38.25 33.1528 40.1528 31.25 42.5 31.25C44.8472 31.25 46.75 33.1528 46.75 35.5Z" fill="url(#paint6_linear_1659_63)"/>
<path d="M46.75 35.5C46.75 37.8472 44.8472 39.75 42.5 39.75C40.1528 39.75 38.25 37.8472 38.25 35.5C38.25 33.1528 40.1528 31.25 42.5 31.25C44.8472 31.25 46.75 33.1528 46.75 35.5Z" stroke="url(#paint7_linear_1659_63)" stroke-width="0.5" style="mix-blend-mode:overlay"/>
<path d="M58.75 65.5C58.75 68.9518 55.9518 71.75 52.5 71.75C49.0482 71.75 46.25 68.9518 46.25 65.5C46.25 62.0482 49.0482 59.25 52.5 59.25C55.9518 59.25 58.75 62.0482 58.75 65.5Z" fill="url(#paint8_linear_1659_63)"/>
<path d="M58.75 65.5C58.75 68.9518 55.9518 71.75 52.5 71.75C49.0482 71.75 46.25 68.9518 46.25 65.5C46.25 62.0482 49.0482 59.25 52.5 59.25C55.9518 59.25 58.75 62.0482 58.75 65.5Z" stroke="url(#paint9_linear_1659_63)" stroke-width="0.5" style="mix-blend-mode:overlay"/>
<path d="M60.75 32.5C60.75 34.8472 58.8472 36.75 56.5 36.75C54.1528 36.75 52.25 34.8472 52.25 32.5C52.25 30.1528 54.1528 28.25 56.5 28.25C58.8472 28.25 60.75 30.1528 60.75 32.5Z" fill="url(#paint10_linear_1659_63)"/>
<path d="M60.75 32.5C60.75 34.8472 58.8472 36.75 56.5 36.75C54.1528 36.75 52.25 34.8472 52.25 32.5C52.25 30.1528 54.1528 28.25 56.5 28.25C58.8472 28.25 60.75 30.1528 60.75 32.5Z" stroke="url(#paint11_linear_1659_63)" stroke-width="0.5" style="mix-blend-mode:overlay"/>
<defs>
<linearGradient id="paint0_linear_1659_63" x1="50" y1="0" x2="50" y2="100" gradientUnits="userSpaceOnUse">
<stop stop-opacity="0.4"/>
<stop offset="1" stop-color="#05EFD4" stop-opacity="0.5"/>
</linearGradient>
<radialGradient id="paint1_radial_1659_63" cx="0" cy="0" r="1" gradientUnits="userSpaceOnUse" gradientTransform="translate(50 50) rotate(90) scale(27)">
<stop stop-color="#176071"/>
<stop offset="1" stop-color="#176071" stop-opacity="0"/>
</radialGradient>
<linearGradient id="paint2_linear_1659_63" x1="28.5697" y1="42.1144" x2="37.112" y2="50.6568" gradientUnits="userSpaceOnUse">
<stop stop-opacity="0"/>
<stop offset="1" stop-color="#FAFF00"/>
</linearGradient>
<linearGradient id="paint3_linear_1659_63" x1="32.5" y1="42" x2="32.5" y2="51" gradientUnits="userSpaceOnUse">
<stop stop-color="#05EFD4"/>
<stop offset="1" stop-color="white" stop-opacity="0"/>
</linearGradient>
<linearGradient id="paint4_linear_1659_63" x1="31.4447" y1="56.2741" x2="41.2074" y2="64.8165" gradientUnits="userSpaceOnUse">
<stop stop-opacity="0"/>
<stop offset="1" stop-color="#FF3D00"/>
</linearGradient>
<linearGradient id="paint5_linear_1659_63" x1="36.5" y1="56" x2="36.5" y2="65" gradientUnits="userSpaceOnUse">
<stop stop-color="#05EFD4"/>
<stop offset="1" stop-color="white" stop-opacity="0"/>
</linearGradient>
<linearGradient id="paint6_linear_1659_63" x1="38.3027" y1="31.572" x2="46.8451" y2="40.1144" gradientUnits="userSpaceOnUse">
<stop stop-opacity="0"/>
<stop offset="1" stop-color="#00FFB2"/>
</linearGradient>
<linearGradient id="paint7_linear_1659_63" x1="42.5" y1="31" x2="42.5" y2="40" gradientUnits="userSpaceOnUse">
<stop stop-color="#05EFD4"/>
<stop offset="1" stop-color="white" stop-opacity="0"/>
</linearGradient>
<linearGradient id="paint8_linear_1659_63" x1="46.4751" y1="58.5478" x2="59.4017" y2="71.4744" gradientUnits="userSpaceOnUse">
<stop stop-opacity="0"/>
<stop offset="1" stop-color="#EB00FF" stop-opacity="0.8"/>
</linearGradient>
<linearGradient id="paint9_linear_1659_63" x1="52.5" y1="59" x2="52.5" y2="72" gradientUnits="userSpaceOnUse">
<stop stop-color="#05EFD4"/>
<stop offset="1" stop-color="white" stop-opacity="0"/>
</linearGradient>
<linearGradient id="paint10_linear_1659_63" x1="52.3218" y1="28.572" x2="60.8641" y2="37.1144" gradientUnits="userSpaceOnUse">
<stop stop-opacity="0"/>
<stop offset="1" stop-color="#0094FF"/>
</linearGradient>
<linearGradient id="paint11_linear_1659_63" x1="56.5" y1="28" x2="56.5" y2="37" gradientUnits="userSpaceOnUse">
<stop stop-color="#05EFD4"/>
<stop offset="1" stop-color="white" stop-opacity="0"/>
</linearGradient>
</defs>
</svg>
