<svg width="101" height="101" viewBox="0 0 101 101" fill="none" xmlns="http://www.w3.org/2000/svg">
<path d="M80.5 2H20.5C10.2827 2 2 10.2827 2 20.5V80.5C2 90.7173 10.2827 99 20.5 99H80.5C90.7173 99 99 90.7173 99 80.5V20.5C99 10.2827 90.7173 2 80.5 2Z" fill="url(#paint0_linear_1746_116)" stroke="#05EFD4" stroke-width="3"/>
<path d="M64.4582 31.6366C65.1678 31.4302 65.8405 32.0478 65.7179 32.7765C64.4505 40.3106 64.5894 46.6673 65.8663 54.1531C65.9431 54.6035 65.7077 55.053 65.2881 55.2335C59.2886 57.8134 57.0721 56.6675 51.1925 54.918C43.8262 53.6821 41.3 53.9597 35.1247 57.29C35.1247 57.29 34.8441 34.3154 35.1247 31.2018C35.4041 28.1028 45.4048 31.7968 50.4903 33.3395C50.5395 33.3544 50.5895 33.3651 50.6405 33.3721C56.931 34.2408 59.2234 33.1591 64.4582 31.6366Z" fill="url(#paint1_linear_1746_116)"/>
<path d="M35.1247 57.29C35.1247 57.29 34.8441 34.3154 35.1247 31.2018C35.4041 28.1028 45.4048 31.7968 50.4903 33.3395C50.5395 33.3544 50.5895 33.3651 50.6405 33.3721C56.931 34.2408 59.2234 33.1591 64.4582 31.6366C65.1678 31.4302 65.8405 32.0478 65.7179 32.7765C64.4505 40.3106 64.5894 46.6673 65.8663 54.1531C65.9431 54.6035 65.7077 55.053 65.2881 55.2335C59.2886 57.8134 57.0721 56.6675 51.1925 54.918C43.8262 53.6821 41.3 53.9597 35.1247 57.29ZM35.1247 57.29V61.332V65.061V72.3944C35.1247 72.6361 35.3207 72.832 35.5624 72.832V72.832C35.8041 72.832 36 72.6361 36 72.3944V65.061V58.2083C36 57.7177 35.6148 57.3135 35.1247 57.29V57.29Z" stroke="black" stroke-width="2"/>
<defs>
<linearGradient id="paint0_linear_1746_116" x1="50.5" y1="0.5" x2="50.5" y2="100.5" gradientUnits="userSpaceOnUse">
<stop stop-opacity="0.4"/>
<stop offset="1" stop-color="#05EFD4" stop-opacity="0.5"/>
</linearGradient>
<linearGradient id="paint1_linear_1746_116" x1="79" y1="45" x2="36" y2="44.5" gradientUnits="userSpaceOnUse">
<stop stop-color="#00FFE2"/>
<stop offset="1" stop-color="#12AEF1"/>
</linearGradient>
</defs>
</svg>
