<svg width="100" height="100" viewBox="0 0 100 100" fill="none" xmlns="http://www.w3.org/2000/svg">
<rect width="100" height="100" rx="20" fill="url(#paint0_linear_1652_43)"/>
<path d="M79.5 52.4998C82 50.5 94.5 71.4999 94.5 71.4999L98 72.9998V83.5L96.5 89L93.5 93L89 96.9999L85 98.5H58H26.5L12 96.9999L6.5 93L2.5 86L1.5 77.5L5 73C8.5 68.5002 12 65.5 16.5 62C16.5 62 19 59.5 21 59.5C23 59.5 27 62.5 27 62.5L34.5 67.5C34.5 67.5 48.5 52.4998 52 52.4998C55.5 52.4998 63.5 59.9748 63.5 59.9748C66.3597 57.205 69.1734 54.5527 71.5 52.4998C75.6205 48.8806 77 54.4997 79.5 52.4998Z" fill="black"/>
<path d="M26.5 98.5L47.5 75.8798L34.5 67.5M26.5 98.5L12 96.9999L6.5 93L2.5 86L1.5 77.5L5 73C8.5 68.5002 12 65.5 16.5 62C16.5 62 19 59.5 21 59.5C23 59.5 27 62.5 27 62.5L34.5 67.5M26.5 98.5H58H85L89 96.9999L93.5 93L96.5 89L98 83.5V72.9998L94.5 71.4999C94.5 71.4999 82 50.5 79.5 52.4998C77 54.4997 75.6204 48.8806 71.5 52.4998C69.1734 54.5527 66.3597 57.205 63.5 59.9748M26.5 98.5C26.5 98.5 55.9122 67.3238 63.5 59.9748M63.5 59.9748C63.5 59.9748 55.5 52.4998 52 52.4998C48.5 52.4998 34.5 67.5 34.5 67.5" stroke="#05EFD4" stroke-width="2"/>
<circle cx="29" cy="33" r="9.5" fill="black" stroke="#05EFD4"/>
<rect x="1.5" y="1.5" width="97" height="97" rx="18.5" stroke="#05EFD4" stroke-width="3"/>
<defs>
<linearGradient id="paint0_linear_1652_43" x1="50" y1="0" x2="50" y2="100" gradientUnits="userSpaceOnUse">
<stop stop-opacity="0.3"/>
<stop offset="0.0001" stop-opacity="0.4"/>
<stop offset="1" stop-color="#05EFD4" stop-opacity="0.5"/>
</linearGradient>
</defs>
</svg>
