<svg width="100" height="100" viewBox="0 0 100 100" fill="none" xmlns="http://www.w3.org/2000/svg">
<rect x="1.5" y="1.5" width="97" height="97" rx="18.5" fill="url(#paint0_linear_1658_54)" stroke="#05EFD4" stroke-width="3"/>
<path d="M48.6959 39.5635V52.3857C48.6959 52.3857 46.1982 50.961 44.1999 52.3857C42.2017 53.8104 43.1905 56.5886 43.6895 57.0635C44.1886 57.5384 47.5017 59.4129 49.5 56.5635C49.5 56.5635 49.8892 56.0635 50.1946 55.5635C50.5 55.0635 50.1946 41.938 50.1946 41.938C51.7189 42.7959 54.9393 43.3627 55.1902 43.3627C55.4411 43.3627 55.6902 42.5635 55.6902 42.5635C55.6902 42.5635 55.6902 42.0635 55.1902 41.3793C54.6902 40.6951 51.5892 39.9079 48.6959 39.5635Z" fill="black" stroke="#05EFD4"/>
<path d="M67 61.0635C67 61.0635 51 66.0635 49.5 66.0635C48 66.0635 32 61.0635 32 61.0635V33.5635H31H28L28.5 66.0635C37.133 66.9737 48 71.127 49.5 71.0635C51 71 62.2548 67.0119 71.5 66.0635V33.5635H68H67V61.0635Z" fill="black"/>
<path d="M32 33.5635V61.0635C32 61.0635 48 66.0635 49.5 66.0635C51 66.0635 67 61.0635 67 61.0635V33.5635M32 33.5635C32 33.5635 32.0133 30.5384 32 29M32 33.5635H31M67 33.5635C67 33.5635 66.9978 30.3991 67 29M67 33.5635H68M67 29C67 29.2201 67 29.5635 67 29.5635C57.9211 29.0707 54.704 30.16 49.5 32.5C42.1567 29.7371 35.3879 29.1623 32 29.5635C28.6121 29.9647 34.3664 29.0206 32 29M67 29C67.3905 29 68 29 68 29V33.5635M67 29C60.7354 27.7294 49.9539 30.4758 49.5 31.5C43.0393 29.3316 39.2206 28.6659 32 29M32 29C31.6095 29 31 29 31 29V33.5635M31 33.5635H28L28.5 66.0635C37.133 66.9737 48 71.127 49.5 71.0635C51 71 62.2548 67.0119 71.5 66.0635V33.5635H68" stroke="#05EFD4"/>
<defs>
<linearGradient id="paint0_linear_1658_54" x1="50" y1="0" x2="50" y2="100" gradientUnits="userSpaceOnUse">
<stop stop-opacity="0.4"/>
<stop offset="1" stop-color="#05EFD4" stop-opacity="0.5"/>
</linearGradient>
</defs>
</svg>
