<svg width="100" height="100" viewBox="0 0 100 100" fill="none" xmlns="http://www.w3.org/2000/svg">
<rect x="1.5" y="1.5" width="97" height="97" rx="18.5" fill="url(#paint0_linear_1657_27)" stroke="#05EFD4" stroke-width="3"/>
<circle cx="36" cy="33" r="9.5" fill="black" stroke="#05EFD4"/>
<rect x="55.5" y="23.5" width="19" height="19" fill="black" stroke="#05EFD4"/>
<path d="M37.299 54.25L45.0933 67.75C45.6706 68.75 44.9489 70 43.7942 70H28.2058C27.0511 70 26.3294 68.75 26.9067 67.75L34.701 54.25C35.2783 53.25 36.7217 53.25 37.299 54.25Z" fill="black" stroke="#05EFD4"/>
<path d="M64.1183 73.7414L55.0568 67.1578C54.5311 66.7758 54.3111 66.0988 54.5119 65.4807L57.9731 54.8283C58.1739 54.2102 58.7498 53.7918 59.3997 53.7918L70.6003 53.7918C71.2502 53.7918 71.8261 54.2102 72.0269 54.8283L75.4881 65.4807C75.6889 66.0988 75.4689 66.7758 74.9432 67.1578L65.8817 73.7414C65.3559 74.1234 64.6441 74.1234 64.1183 73.7414Z" fill="black" stroke="#05EFD4"/>
<defs>
<linearGradient id="paint0_linear_1657_27" x1="50" y1="0" x2="50" y2="100" gradientUnits="userSpaceOnUse">
<stop stop-opacity="0.4"/>
<stop offset="1" stop-color="#05EFD4" stop-opacity="0.5"/>
</linearGradient>
</defs>
</svg>
