<svg width="58" height="77" viewBox="0 0 58 77" fill="none" xmlns="http://www.w3.org/2000/svg">
<path d="M9.54713 33.808C8.45913 34.1493 7.44579 34.2133 6.50713 34C5.56846 33.7653 4.72579 33.3493 3.97913 32.752C3.25379 32.1547 2.65646 31.4613 2.18713 30.672C1.73913 29.8613 1.46179 29.04 1.35513 28.208C1.14179 26.6293 1.22713 25.072 1.61113 23.536C2.01646 21.9787 2.69913 20.6453 3.65913 19.536C4.72579 18.256 6.03779 17.4453 7.59513 17.104C9.15246 16.7413 10.9125 16.9333 12.8751 17.68C13.5365 17.936 14.2405 18.384 14.9871 19.024C15.0725 19.1307 15.2005 19.2587 15.3711 19.408L15.8831 19.856C16.0325 19.984 16.1818 20.1013 16.3311 20.208C16.7578 20.528 17.0031 20.9653 17.0671 21.52C17.1525 22.0533 17.0351 22.5333 16.7151 22.96C16.4591 23.28 16.1285 23.504 15.7231 23.632L15.7551 23.664C15.9258 24.048 16.0218 24.5493 16.0431 25.168C16.0645 25.424 16.0645 25.6693 16.0431 25.904C16.0431 26.1173 16.0431 26.2453 16.0431 26.288C16.0431 26.3307 16.0538 26.4053 16.0751 26.512C16.2245 27.1733 16.3845 27.9307 16.5551 28.784C16.5978 29.04 16.6298 29.2 16.6511 29.264C16.6938 29.328 16.7471 29.392 16.8111 29.456L18.1871 30.8C18.5925 31.2053 18.7845 31.6853 18.7631 32.24C18.7631 32.7733 18.5605 33.232 18.1551 33.616C17.7711 34 17.3125 34.1813 16.7791 34.16C16.2458 34.16 15.7871 33.968 15.4031 33.584L14.0591 32.272C13.5898 31.8027 13.2591 31.376 13.0671 30.992L13.0351 30.896C13.0138 30.9387 12.9285 31.056 12.7791 31.248L12.4271 31.696L11.9791 32.176C11.8085 32.368 11.6378 32.5387 11.4671 32.688L10.8911 33.104C10.6778 33.2533 10.4538 33.392 10.2191 33.52C10.0058 33.6267 9.78179 33.7227 9.54713 33.808ZM8.26713 30.096C8.35246 30.0747 8.43779 30.0427 8.52313 30C8.60846 29.936 8.68313 29.8827 8.74713 29.84C8.81113 29.776 8.89646 29.68 9.00313 29.552C9.10979 29.424 9.20579 29.3173 9.29113 29.232C9.37646 29.1467 9.51513 28.9973 9.70713 28.784L10.1231 28.24C10.2725 28.0693 10.4751 27.6747 10.7311 27.056C10.7525 26.992 10.7631 26.9173 10.7631 26.832C10.7845 26.7467 10.7951 26.5973 10.7951 26.384C10.8165 26.1493 10.8485 25.8933 10.8911 25.616C11.0405 24.144 11.6378 23.152 12.6831 22.64C12.7685 22.5973 12.8538 22.5653 12.9391 22.544L12.4271 22.032C12.0005 21.6693 11.6485 21.4347 11.3711 21.328C9.36579 20.496 7.79779 20.752 6.66713 22.096C6.09113 22.736 5.67513 23.568 5.41913 24.592C5.16313 25.5947 5.10979 26.64 5.25913 27.728C5.36579 28.5173 5.74979 29.1573 6.41113 29.648C7.07246 30.1387 7.69113 30.288 8.26713 30.096Z" fill="black"/>
<path d="M49.8614 38.904C47.536 39.224 45.5734 38.7653 43.9734 37.528C42.6294 36.4827 41.648 34.968 41.0294 32.984C40.5387 31.192 40.304 29.432 40.3254 27.704C40.368 25.976 40.592 24.3653 40.9974 22.872C41.4667 21.1653 42.0534 19.864 42.7574 18.968C43.632 17.8587 44.912 16.9947 46.5974 16.376C47.1734 16.1627 47.9947 16.0667 49.0614 16.088C49.5947 16.088 49.9254 16.0667 50.0534 16.024C50.2454 15.96 50.4907 15.7787 50.7894 15.48L51.3974 14.936C51.6747 14.6587 51.92 14.4347 52.1334 14.264C52.5814 13.9227 53.072 13.784 53.6054 13.848C54.16 13.912 54.608 14.168 54.9494 14.616C55.2907 15.0427 55.4294 15.5333 55.3654 16.088C55.3014 16.6213 55.056 17.0587 54.6294 17.4L54.1174 17.848L53.4774 18.424C52.816 19.0427 52.1654 19.48 51.5254 19.736C50.9067 19.9707 50.064 20.088 48.9974 20.088C48.4214 20.0667 48.0694 20.088 47.9414 20.152C46.9814 20.4933 46.2987 20.92 45.8934 21.432C45.7014 21.688 45.5307 21.9973 45.3814 22.36C46.768 21.6133 48.144 21.3147 49.5094 21.464C50.8747 21.592 52.144 22.0933 53.3174 22.968C54.6614 23.992 55.6427 25.3467 56.2614 27.032C56.88 28.7173 56.9654 30.488 56.5174 32.344C56.0267 34.2427 55.28 35.704 54.2774 36.728C53.104 37.9227 51.632 38.648 49.8614 38.904ZM49.2854 34.936C50.1814 34.808 50.9067 34.4667 51.4614 33.912C51.9307 33.4213 52.3147 32.5787 52.6134 31.384C52.8907 30.3173 52.8587 29.3147 52.5174 28.376C52.176 27.4373 51.632 26.6907 50.8854 26.136C50.2667 25.624 49.5627 25.3787 48.7734 25.4C48.0054 25.4213 47.2907 25.7627 46.6294 26.424C46.416 26.616 46.2027 26.968 45.9894 27.48C45.9467 27.5653 45.904 27.6613 45.8614 27.768C45.8187 27.8747 45.7654 27.992 45.7014 28.12C45.6587 28.2267 45.6267 28.3227 45.6054 28.408C45.4134 28.8347 45.2427 29.1973 45.0934 29.496C44.944 29.7733 44.7414 30.008 44.4854 30.2C44.5707 30.776 44.688 31.3093 44.8374 31.8C45.2214 32.9947 45.744 33.848 46.4054 34.36C47.1307 34.9147 48.0907 35.1067 49.2854 34.936Z" fill="black"/>
<path d="M26.6893 62.736C26.1559 62.8427 25.6653 62.736 25.2173 62.416C24.7693 62.1173 24.4919 61.712 24.3853 61.2L24.3213 60.816C24.1933 60.56 24.1399 60.2933 24.1613 60.016V59.952C23.7559 57.4773 23.4146 53.5093 23.1373 48.048C23.0733 47.8987 23.0199 47.7493 22.9773 47.6C22.9346 47.2587 22.9666 46.9387 23.0733 46.64C23.1373 46.1493 23.3399 45.744 23.6813 45.424C24.0226 45.104 24.4386 44.9333 24.9293 44.912C25.2919 44.8907 25.6333 44.9653 25.9533 45.136C27.6599 44.88 29.1319 44.752 30.3693 44.752C31.7773 44.7733 32.9719 44.9653 33.9533 45.328C35.4679 45.8613 36.4386 46.8 36.8653 48.144C37.3986 49.7653 37.1106 51.216 36.0013 52.496L35.7133 52.752C36.4813 53.2853 37.0679 53.8933 37.4733 54.576C37.9426 55.536 38.0706 56.4853 37.8573 57.424C37.6653 58.3627 37.1533 59.248 36.3213 60.08C35.1479 61.2747 33.3026 61.9467 30.7853 62.096C30.0173 62.1387 29.1319 62.1387 28.1293 62.096H27.8093C27.5106 62.4373 27.1373 62.6507 26.6893 62.736ZM30.5933 58.192C32.0866 58.1067 33.0466 57.8293 33.4733 57.36C33.8999 56.9547 34.0813 56.6667 34.0173 56.496C33.8039 56.112 33.2386 55.76 32.3213 55.44C31.7879 55.248 30.9133 55.216 29.6973 55.344C29.1426 55.408 28.4386 55.5147 27.5853 55.664C27.6706 56.5387 27.7666 57.3707 27.8733 58.16H28.3213C29.2173 58.2027 29.9746 58.2133 30.5933 58.192ZM27.2333 51.472C29.0039 51.3013 30.4119 51.0347 31.4573 50.672C32.2679 50.4373 32.8119 50.16 33.0893 49.84C33.1746 49.7333 33.1853 49.5627 33.1213 49.328C33.1213 49.2213 32.9506 49.1147 32.6093 49.008C32.0759 48.7947 31.3186 48.688 30.3373 48.688C29.4199 48.688 28.3426 48.7733 27.1053 48.944C27.1693 50.0107 27.2119 50.8533 27.2333 51.472Z" fill="black"/>
</svg>
