<svg width="108" height="108" viewBox="0 0 108 108" fill="none" xmlns="http://www.w3.org/2000/svg">
<g filter="url(#filter0_d_35_53)">
<rect x="4" width="100" height="100" rx="30" fill="#2A5695"/>
<g filter="url(#filter1_d_35_53)">
<rect x="29.5" y="33.5" width="49" height="34" stroke="black" shape-rendering="crispEdges"/>
</g>
<circle cx="70" cy="41" r="5" fill="#C0A411"/>
<path d="M35.973 40.6919C36.085 40.6119 37.0452 40.0002 37.0756 40.3651C37.0922 40.5639 37.5152 40.479 37.6416 40.4818C37.8706 40.487 38.4403 40.563 38.61 40.7327C38.7606 40.8832 39.0851 40.765 39.281 40.8085C39.4988 40.857 39.8917 41.2417 39.6777 41.4795C39.3087 41.8895 38.6817 41.9092 38.1783 41.8995C37.9141 41.8945 37.811 41.7512 37.6007 41.637C37.3824 41.5185 37.1722 41.532 36.9298 41.532C36.5225 41.532 36.1608 41.5574 35.7629 41.637" stroke="white" stroke-width="2" stroke-linecap="round"/>
<path d="M47.3147 40.5343C47.6767 40.605 47.7401 40.5705 47.8689 40.9019C47.9271 41.0513 47.9973 41.1561 47.9973 41.3219C47.9973 41.3808 47.9582 41.6363 48.009 41.6778C48.1078 41.7587 48.4823 41.6396 48.5982 41.6253C48.9929 41.5767 49.3855 41.5845 49.7826 41.5845C50.0588 41.5845 50.4174 41.604 50.6723 41.4766C50.8014 41.412 50.9483 41.3366 51.0953 41.3219C51.4043 41.291 51.495 40.8499 51.3491 40.6218C51.0894 40.2162 50.1999 40.2808 49.7942 40.2718C49.5994 40.2675 49.6917 40.1288 49.5609 40.0734C49.3793 39.9966 49.182 40.0222 48.992 40.0063C48.8584 39.9952 48.2878 39.8483 48.2073 40.0093" stroke="white" stroke-width="2" stroke-linecap="round"/>
<path d="M58.0787 42.3721C57.8323 42.1402 57.4617 42.0499 57.1919 42.3196C57.0647 42.4468 56.9472 42.6298 56.7777 42.6988C56.308 42.8902 56.644 43.0747 56.9235 43.3144C56.9659 43.3506 57.0424 43.3713 57.0694 43.4223C57.0976 43.4756 57.0572 43.5406 57.1161 43.5798C57.3538 43.7383 57.7517 43.7248 58.0262 43.7782C58.1465 43.8015 58.765 43.769 58.843 43.7052C59.1817 43.4282 59.3733 43.4748 59.7356 43.4748C59.9062 43.4748 60.2226 43.5015 60.3249 43.3173C60.4347 43.1195 60.1845 42.959 60.0215 42.9497C59.4178 42.9152 59.5975 41.849 58.8663 42.2146" stroke="white" stroke-width="2" stroke-linecap="round"/>
<path d="M29.55 53.9222L36.9149 46.5574" stroke="black" stroke-linecap="round"/>
<path d="M36.915 46.5135L57.826 67.4245" stroke="black" stroke-linecap="round"/>
<path d="M43.4907 52.8701L52.4776 43.8832" stroke="black" stroke-linecap="round"/>
<path d="M50.4172 59.6651L65.0593 45.023" stroke="black" stroke-linecap="round"/>
<path d="M64.9277 45.023L77.9697 58.065" stroke="black" stroke-linecap="round"/>
<path d="M52.5054 43.8613L59.1163 50.4722" stroke="black" stroke-linecap="round"/>
</g>
<defs>
<filter id="filter0_d_35_53" x="0" y="0" width="108" height="108" filterUnits="userSpaceOnUse" color-interpolation-filters="sRGB">
<feFlood flood-opacity="0" result="BackgroundImageFix"/>
<feColorMatrix in="SourceAlpha" type="matrix" values="0 0 0 0 0 0 0 0 0 0 0 0 0 0 0 0 0 0 127 0" result="hardAlpha"/>
<feOffset dy="4"/>
<feGaussianBlur stdDeviation="2"/>
<feComposite in2="hardAlpha" operator="out"/>
<feColorMatrix type="matrix" values="0 0 0 0 0 0 0 0 0 0 0 0 0 0 0 0 0 0 0.25 0"/>
<feBlend mode="normal" in2="BackgroundImageFix" result="effect1_dropShadow_35_53"/>
<feBlend mode="normal" in="SourceGraphic" in2="effect1_dropShadow_35_53" result="shape"/>
</filter>
<filter id="filter1_d_35_53" x="25" y="33" width="58" height="43" filterUnits="userSpaceOnUse" color-interpolation-filters="sRGB">
<feFlood flood-opacity="0" result="BackgroundImageFix"/>
<feColorMatrix in="SourceAlpha" type="matrix" values="0 0 0 0 0 0 0 0 0 0 0 0 0 0 0 0 0 0 127 0" result="hardAlpha"/>
<feOffset dy="4"/>
<feGaussianBlur stdDeviation="2"/>
<feComposite in2="hardAlpha" operator="out"/>
<feColorMatrix type="matrix" values="0 0 0 0 0 0 0 0 0 0 0 0 0 0 0 0 0 0 0.25 0"/>
<feBlend mode="normal" in2="BackgroundImageFix" result="effect1_dropShadow_35_53"/>
<feBlend mode="normal" in="SourceGraphic" in2="effect1_dropShadow_35_53" result="shape"/>
</filter>
</defs>
</svg>
