<svg width="222" height="53" viewBox="0 0 222 53" fill="none" xmlns="http://www.w3.org/2000/svg">
<g filter="url(#filter0_d_262_2)">
<rect x="4" width="214" height="45" rx="17" fill="#004D11"/>
</g>
<g filter="url(#filter1_dd_262_2)">
<path d="M50.7981 31.24C49.4381 31.24 48.0941 30.992 46.7661 30.496C45.4381 30 44.2541 29.312 43.2141 28.432L45.5181 25.432C46.5421 26.264 47.4861 26.864 48.3501 27.232C49.2141 27.584 50.1341 27.76 51.1101 27.76C51.7501 27.76 52.2941 27.696 52.7421 27.568C53.1901 27.44 53.5341 27.256 53.7741 27.016C54.0141 26.76 54.1341 26.464 54.1341 26.128C54.1341 25.664 53.9581 25.304 53.6061 25.048C53.2541 24.792 52.6541 24.592 51.8061 24.448L48.1101 23.8C46.7501 23.56 45.7021 23.04 44.9661 22.24C44.2301 21.44 43.8621 20.424 43.8621 19.192C43.8621 18.104 44.1341 17.168 44.6781 16.384C45.2381 15.6 46.0301 15 47.0541 14.584C48.0941 14.168 49.3261 13.96 50.7501 13.96C51.9981 13.96 53.2541 14.176 54.5181 14.608C55.7821 15.024 56.8781 15.608 57.8061 16.36L55.6221 19.408C53.8941 18.08 52.1741 17.416 50.4621 17.416C49.9021 17.416 49.4141 17.48 48.9981 17.608C48.5981 17.72 48.2861 17.888 48.0621 18.112C47.8541 18.32 47.7501 18.576 47.7501 18.88C47.7501 19.296 47.9021 19.616 48.2061 19.84C48.5261 20.064 49.0381 20.24 49.7421 20.368L53.2221 20.944C54.8381 21.2 56.0621 21.736 56.8941 22.552C57.7421 23.368 58.1661 24.424 58.1661 25.72C58.1661 26.856 57.8701 27.84 57.2781 28.672C56.6861 29.488 55.8381 30.12 54.7341 30.568C53.6301 31.016 52.3181 31.24 50.7981 31.24ZM69.6669 31.216C68.7709 31.216 67.9709 31.048 67.2669 30.712C66.5789 30.376 66.0349 29.912 65.6349 29.32C65.2509 28.728 65.0589 28.048 65.0589 27.28C65.0589 26.064 65.5149 25.128 66.4269 24.472C67.3549 23.8 68.6429 23.464 70.2909 23.464C71.2829 23.464 72.2429 23.584 73.1709 23.824V23.2C73.1709 22.56 72.9629 22.088 72.5469 21.784C72.1469 21.464 71.5469 21.304 70.7469 21.304C70.2509 21.304 69.6909 21.384 69.0669 21.544C68.4589 21.704 67.7389 21.96 66.9069 22.312L65.5149 19.456C66.5549 18.992 67.5549 18.648 68.5149 18.424C69.4909 18.184 70.4669 18.064 71.4429 18.064C73.2029 18.064 74.5709 18.488 75.5469 19.336C76.5229 20.168 77.0109 21.344 77.0109 22.864V31H73.1709V30.232C72.6589 30.584 72.1149 30.84 71.5389 31C70.9789 31.144 70.3549 31.216 69.6669 31.216ZM68.7549 27.208C68.7549 27.608 68.9309 27.92 69.2829 28.144C69.6349 28.368 70.1229 28.48 70.7469 28.48C71.2109 28.48 71.6429 28.432 72.0429 28.336C72.4589 28.24 72.8349 28.088 73.1709 27.88V26.248C72.8029 26.152 72.4269 26.08 72.0429 26.032C71.6589 25.984 71.2669 25.96 70.8669 25.96C70.1949 25.96 69.6749 26.072 69.3069 26.296C68.9389 26.504 68.7549 26.808 68.7549 27.208ZM84.7219 31V18.304H88.6099V19.168C89.5699 18.432 90.7059 18.064 92.0179 18.064C93.0099 18.064 93.8819 18.28 94.6339 18.712C95.4019 19.144 96.0019 19.744 96.4339 20.512C96.8659 21.28 97.0819 22.168 97.0819 23.176V31H93.1939V23.704C93.1939 23 92.9859 22.44 92.5699 22.024C92.1539 21.608 91.5939 21.4 90.8899 21.4C90.3939 21.4 89.9539 21.488 89.5699 21.664C89.2019 21.84 88.8819 22.088 88.6099 22.408V31H84.7219ZM110.698 31.168C109.498 31.168 108.402 30.88 107.41 30.304C106.434 29.712 105.658 28.928 105.082 27.952C104.506 26.96 104.218 25.856 104.218 24.64C104.218 23.424 104.506 22.328 105.082 21.352C105.674 20.36 106.466 19.576 107.458 19C108.466 18.424 109.586 18.136 110.818 18.136C111.41 18.136 111.978 18.208 112.522 18.352C113.066 18.496 113.578 18.704 114.058 18.976V14.2L117.946 13.6V31H114.106V30.064C113.098 30.8 111.962 31.168 110.698 31.168ZM111.37 27.856C111.914 27.856 112.41 27.776 112.858 27.616C113.306 27.44 113.706 27.184 114.058 26.848V22.408C113.722 22.088 113.322 21.848 112.858 21.688C112.394 21.512 111.898 21.424 111.37 21.424C110.746 21.424 110.178 21.568 109.666 21.856C109.17 22.128 108.77 22.512 108.466 23.008C108.178 23.488 108.034 24.032 108.034 24.64C108.034 25.248 108.178 25.8 108.466 26.296C108.77 26.776 109.17 27.16 109.666 27.448C110.178 27.72 110.746 27.856 111.37 27.856ZM125.756 31V14.2L129.644 13.6V19.192C130.636 18.488 131.756 18.136 133.004 18.136C134.22 18.136 135.316 18.432 136.292 19.024C137.268 19.6 138.044 20.384 138.62 21.376C139.196 22.352 139.484 23.448 139.484 24.664C139.484 25.88 139.188 26.984 138.596 27.976C138.02 28.952 137.228 29.728 136.22 30.304C135.228 30.88 134.116 31.168 132.884 31.168C132.292 31.168 131.716 31.096 131.156 30.952C130.596 30.792 130.076 30.568 129.596 30.28V31H125.756ZM132.332 27.88C132.972 27.88 133.54 27.744 134.036 27.472C134.532 27.184 134.924 26.8 135.212 26.32C135.516 25.824 135.668 25.272 135.668 24.664C135.668 24.056 135.516 23.512 135.212 23.032C134.924 22.536 134.524 22.152 134.012 21.88C133.516 21.592 132.956 21.448 132.332 21.448C131.788 21.448 131.292 21.536 130.844 21.712C130.396 21.872 129.996 22.12 129.644 22.456V26.896C129.98 27.2 130.38 27.44 130.844 27.616C131.308 27.792 131.804 27.88 132.332 27.88ZM153.031 31.24C151.735 31.24 150.567 30.952 149.527 30.376C148.487 29.784 147.663 28.992 147.055 28C146.447 27.008 146.143 25.896 146.143 24.664C146.143 23.432 146.447 22.32 147.055 21.328C147.663 20.32 148.487 19.528 149.527 18.952C150.567 18.36 151.735 18.064 153.031 18.064C154.327 18.064 155.495 18.36 156.535 18.952C157.575 19.528 158.399 20.32 159.007 21.328C159.615 22.32 159.919 23.432 159.919 24.664C159.919 25.896 159.615 27.008 159.007 28C158.399 28.992 157.575 29.784 156.535 30.376C155.495 30.952 154.327 31.24 153.031 31.24ZM153.031 27.88C153.623 27.88 154.151 27.736 154.615 27.448C155.079 27.16 155.447 26.776 155.719 26.296C155.991 25.8 156.127 25.256 156.127 24.664C156.127 24.056 155.991 23.512 155.719 23.032C155.447 22.536 155.071 22.144 154.591 21.856C154.127 21.568 153.607 21.424 153.031 21.424C152.455 21.424 151.927 21.568 151.447 21.856C150.983 22.144 150.615 22.536 150.343 23.032C150.071 23.512 149.935 24.056 149.935 24.664C149.935 25.256 150.071 25.8 150.343 26.296C150.615 26.776 150.983 27.16 151.447 27.448C151.927 27.736 152.455 27.88 153.031 27.88ZM164.744 31L169.568 24.568L164.816 18.304H169.328L171.824 21.712L174.296 18.304H178.64L173.96 24.52L178.904 31H174.392L171.728 27.376L169.088 31H164.744Z" fill="#00EDC2"/>
</g>
<defs>
<filter id="filter0_d_262_2" x="0" y="0" width="222" height="53" filterUnits="userSpaceOnUse" color-interpolation-filters="sRGB">
<feFlood flood-opacity="0" result="BackgroundImageFix"/>
<feColorMatrix in="SourceAlpha" type="matrix" values="0 0 0 0 0 0 0 0 0 0 0 0 0 0 0 0 0 0 127 0" result="hardAlpha"/>
<feOffset dy="4"/>
<feGaussianBlur stdDeviation="2"/>
<feComposite in2="hardAlpha" operator="out"/>
<feColorMatrix type="matrix" values="0 0 0 0 0 0 0 0 0 0 0 0 0 0 0 0 0 0 0.25 0"/>
<feBlend mode="normal" in2="BackgroundImageFix" result="effect1_dropShadow_262_2"/>
<feBlend mode="normal" in="SourceGraphic" in2="effect1_dropShadow_262_2" result="shape"/>
</filter>
<filter id="filter1_dd_262_2" x="39.2141" y="13.6" width="143.69" height="25.64" filterUnits="userSpaceOnUse" color-interpolation-filters="sRGB">
<feFlood flood-opacity="0" result="BackgroundImageFix"/>
<feColorMatrix in="SourceAlpha" type="matrix" values="0 0 0 0 0 0 0 0 0 0 0 0 0 0 0 0 0 0 127 0" result="hardAlpha"/>
<feOffset dy="4"/>
<feGaussianBlur stdDeviation="2"/>
<feComposite in2="hardAlpha" operator="out"/>
<feColorMatrix type="matrix" values="0 0 0 0 0 0 0 0 0 0 0 0 0 0 0 0 0 0 0.25 0"/>
<feBlend mode="normal" in2="BackgroundImageFix" result="effect1_dropShadow_262_2"/>
<feColorMatrix in="SourceAlpha" type="matrix" values="0 0 0 0 0 0 0 0 0 0 0 0 0 0 0 0 0 0 127 0" result="hardAlpha"/>
<feOffset dy="4"/>
<feGaussianBlur stdDeviation="2"/>
<feComposite in2="hardAlpha" operator="out"/>
<feColorMatrix type="matrix" values="0 0 0 0 0 0 0 0 0 0 0 0 0 0 0 0 0 0 0.25 0"/>
<feBlend mode="normal" in2="effect1_dropShadow_262_2" result="effect2_dropShadow_262_2"/>
<feBlend mode="normal" in="SourceGraphic" in2="effect2_dropShadow_262_2" result="shape"/>
</filter>
</defs>
</svg>
